<?xml version="1.0" standalone="no"?>
<!DOCTYPE svg PUBLIC "-//W3C//DTD SVG 20010904//EN"
 "http://www.w3.org/TR/2001/REC-SVG-20010904/DTD/svg10.dtd">
<svg version="1.0" xmlns="http://www.w3.org/2000/svg"
 width="2080.000000pt" height="2080.000000pt" viewBox="0 0 2080.000000 2080.000000"
 preserveAspectRatio="xMidYMid meet">
<metadata>
Created by potrace 1.11, written by Peter Selinger 2001-2013
</metadata>
<g transform="translate(0.000000,2080.000000) scale(0.100000,-0.100000)"
fill="#000000" stroke="none">
<path d="M5768 14495 c-1 -2 -57 -5 -123 -7 -66 -2 -126 -7 -133 -12 -7 -4
-12 -2 -12 4 0 6 -4 9 -8 6 -7 -4 -80 -13 -175 -21 -23 -2 -55 -6 -72 -9 -16
-2 -50 -8 -75 -11 -65 -9 -87 -13 -176 -31 -43 -8 -88 -17 -99 -19 -11 -3 -40
-9 -65 -15 -25 -7 -52 -13 -60 -15 -12 -3 -50 -14 -165 -49 -26 -7 -101 -29
-110 -31 -14 -3 -45 -15 -80 -30 -16 -8 -33 -11 -37 -9 -4 3 -8 0 -8 -5 0 -6
-3 -10 -7 -9 -12 3 -86 -23 -108 -38 -11 -8 -26 -14 -33 -14 -7 0 -65 -24
-128 -54 -63 -30 -114 -52 -114 -48 0 4 -4 3 -8 -3 -4 -5 -50 -32 -102 -59
-52 -27 -142 -78 -199 -113 -57 -34 -105 -63 -108 -63 -2 0 -11 -6 -18 -12
-33 -30 -45 -38 -55 -38 -5 0 -10 -5 -10 -11 0 -5 -4 -8 -9 -5 -5 4 -11 3 -13
-1 -1 -5 -46 -40 -98 -78 -92 -68 -135 -102 -171 -136 -9 -9 -24 -21 -32 -25
-38 -21 -278 -254 -399 -385 -80 -89 -238 -285 -238 -298 0 -5 -4 -11 -9 -13
-4 -1 -40 -50 -79 -108 -40 -58 -75 -110 -79 -116 -11 -14 -29 -44 -80 -134
-23 -41 -46 -80 -51 -86 -5 -6 -13 -21 -17 -35 -4 -13 -10 -26 -14 -29 -11 -9
-116 -232 -123 -260 -2 -8 -6 -17 -10 -20 -9 -7 -108 -269 -108 -286 0 -8 -5
-14 -11 -14 -5 0 -8 -4 -4 -9 3 -5 -1 -27 -9 -48 -16 -39 -53 -168 -62 -212
-3 -14 -7 -28 -9 -31 -2 -4 -7 -22 -10 -41 -3 -19 -8 -42 -11 -51 -5 -18 -13
-50 -20 -88 -2 -14 -9 -47 -14 -75 -5 -27 -12 -68 -15 -90 -3 -23 -8 -52 -11
-65 -2 -14 -7 -47 -10 -75 -3 -27 -7 -66 -9 -85 -20 -180 -24 -780 -5 -780 3
0 6 -19 7 -43 5 -86 20 -214 27 -226 2 -3 7 -30 10 -59 3 -29 8 -57 10 -61 3
-5 8 -23 10 -42 8 -54 16 -88 43 -189 14 -52 27 -102 28 -110 1 -8 5 -22 8
-30 3 -8 18 -53 32 -100 15 -47 30 -94 35 -105 31 -77 50 -129 50 -136 0 -5
13 -38 30 -74 16 -36 30 -68 30 -72 0 -12 135 -278 145 -285 5 -4 6 -8 1 -8
-5 0 -4 -6 2 -12 5 -7 22 -35 38 -63 29 -53 119 -199 154 -250 34 -50 203
-279 214 -291 6 -6 27 -30 46 -54 92 -114 450 -476 450 -455 0 2 15 -11 34
-28 34 -32 78 -68 191 -154 83 -63 262 -183 274 -183 5 0 11 -4 13 -8 1 -5 46
-32 98 -62 52 -30 97 -57 98 -62 2 -4 9 -8 16 -8 6 0 38 -14 71 -31 33 -17 76
-39 95 -49 59 -30 148 -69 175 -76 14 -3 25 -11 25 -16 0 -6 7 -8 15 -4 8 3
20 0 27 -7 7 -7 21 -13 31 -15 10 -2 39 -12 64 -23 25 -11 48 -18 50 -16 2 3
-11 10 -29 17 -49 19 -342 163 -348 170 -3 3 -31 21 -62 39 -32 18 -60 37 -63
42 -4 5 -11 7 -16 4 -5 -4 -9 -2 -9 4 0 5 -8 12 -19 16 -16 5 -31 16 -78 55
-7 5 -17 10 -23 10 -5 0 -10 3 -10 8 0 4 -18 18 -40 32 -22 13 -40 28 -40 32
0 4 -7 8 -15 8 -8 0 -15 4 -15 8 0 4 -12 15 -28 24 -15 9 -39 27 -53 40 -15
13 -48 41 -74 63 -25 22 -64 56 -84 75 -21 19 -56 51 -77 71 -77 71 -242 252
-305 334 -13 17 -26 32 -29 35 -16 13 -90 118 -90 128 0 5 -4 12 -8 14 -4 2
-23 26 -42 53 -19 28 -37 52 -40 55 -3 3 -11 15 -17 28 -32 56 -39 67 -50 79
-6 7 -23 37 -38 65 -14 29 -44 87 -66 128 -33 61 -97 202 -150 328 -5 12 -13
32 -19 45 -38 88 -137 436 -159 562 -6 33 -13 71 -16 84 -2 14 -9 61 -15 105
-6 45 -14 96 -16 114 -3 19 -7 66 -9 105 -2 40 -4 72 -5 72 -1 0 -3 10 -4 23
-2 12 2 22 8 22 7 0 8 3 1 8 -11 7 -16 332 -5 332 3 0 6 33 7 73 1 69 3 98 18
212 8 63 12 87 25 155 6 30 13 71 16 90 3 19 8 39 11 43 2 4 6 20 8 35 5 33 7
42 39 158 14 49 30 102 35 117 6 15 7 27 3 27 -4 0 -2 4 3 8 6 4 20 37 32 74
13 36 28 79 34 95 7 15 13 33 14 38 6 24 83 189 135 290 81 158 118 222 194
337 28 41 119 171 131 186 8 9 40 49 71 87 146 181 303 341 474 484 64 53 128
105 144 116 15 11 34 26 41 33 8 6 18 12 23 12 6 0 12 4 14 8 4 11 185 132
197 132 5 0 11 4 13 8 3 8 111 71 183 107 22 11 42 23 43 28 2 4 7 7 12 7 5 0
56 23 115 50 59 28 109 50 111 50 3 0 24 9 47 19 40 18 175 71 180 70 1 0 16
5 32 11 17 6 38 12 48 13 9 1 17 5 17 10 0 4 4 6 9 2 5 -3 12 -1 16 5 4 6 11
8 16 4 5 -3 16 0 24 6 8 7 15 10 15 6 0 -3 11 -1 25 4 14 5 36 12 48 14 12 3
58 14 102 25 69 17 161 35 280 56 66 11 166 22 280 31 104 9 449 9 545 1 140
-12 195 -20 204 -27 5 -5 14 -6 21 -4 11 4 91 -6 155 -21 14 -3 40 -8 59 -11
37 -6 59 -11 94 -20 12 -3 38 -9 57 -14 19 -4 62 -16 95 -25 33 -9 65 -18 70
-19 6 -2 17 -6 25 -9 8 -3 38 -13 65 -21 110 -32 439 -169 505 -211 8 -5 21
-10 29 -12 8 -1 17 -5 20 -10 3 -4 26 -18 51 -31 25 -13 59 -32 75 -42 17 -11
46 -29 65 -40 89 -52 253 -165 289 -197 13 -13 28 -23 32 -23 5 0 16 -8 26
-18 10 -10 43 -38 73 -62 30 -25 57 -47 60 -50 3 -3 41 -34 85 -70 89 -72 114
-93 156 -130 15 -14 49 -40 74 -59 25 -18 45 -37 45 -42 0 -5 6 -9 14 -9 8 0
16 -3 18 -7 2 -5 41 -39 88 -78 47 -38 87 -72 90 -75 3 -3 28 -23 55 -45 28
-22 61 -49 75 -61 64 -54 162 -135 230 -189 41 -33 81 -67 90 -75 9 -9 33 -29
55 -45 22 -17 46 -37 55 -45 9 -8 36 -31 60 -50 24 -19 48 -40 54 -45 6 -6 54
-46 106 -89 52 -44 97 -82 100 -85 3 -3 21 -18 40 -33 19 -14 44 -34 55 -45
11 -10 70 -59 130 -108 61 -49 115 -94 121 -100 6 -5 29 -25 52 -43 23 -19 50
-41 60 -50 11 -10 39 -33 62 -52 24 -19 48 -40 54 -45 6 -6 36 -30 66 -55 30
-25 69 -57 85 -72 37 -34 39 -34 59 -3 9 14 28 38 41 53 14 15 113 137 221
272 199 249 212 264 274 340 19 24 39 50 44 59 5 9 15 21 22 26 6 6 49 57 94
115 46 58 86 107 89 110 3 3 20 23 36 45 30 40 51 67 70 89 10 11 77 94 105
130 8 11 25 30 37 43 12 13 20 23 18 23 -3 0 3 8 13 18 21 23 37 43 140 170
46 57 87 109 92 115 6 7 37 46 70 87 81 99 123 151 135 164 6 6 21 26 34 44
13 19 33 43 45 55 11 12 35 40 51 61 41 53 118 149 130 162 6 6 24 28 40 48
98 124 231 272 319 355 21 20 58 54 81 76 110 104 436 355 460 355 3 0 11 5
18 10 22 19 132 86 169 103 20 10 40 23 44 29 4 6 -55 -22 -132 -62 -76 -40
-149 -78 -161 -84 -13 -6 -23 -14 -23 -18 0 -5 -4 -8 -10 -8 -9 0 -188 -111
-215 -133 -5 -4 -41 -30 -80 -56 -38 -27 -81 -58 -95 -70 -14 -11 -52 -42 -85
-68 -92 -73 -93 -74 -158 -133 -75 -68 -237 -224 -452 -435 -627 -614 -847
-830 -1123 -1103 l-312 -309 -59 61 c-84 87 -185 192 -320 334 -64 67 -160
168 -213 223 -54 55 -98 105 -98 110 0 6 -4 8 -9 5 -5 -4 -11 -2 -13 3 -3 9
-183 200 -383 405 -49 51 -182 189 -295 306 -392 406 -532 542 -685 664 -33
27 -70 57 -82 67 -58 48 -310 219 -323 219 -6 0 -10 4 -10 9 0 5 -14 14 -31
21 -17 7 -36 18 -43 24 -14 13 -40 27 -185 103 -57 29 -109 57 -115 61 -6 4
-13 7 -16 8 -8 1 -51 20 -133 58 -42 20 -83 36 -90 36 -7 0 -18 5 -23 10 -6 6
-20 12 -32 15 -12 2 -36 10 -54 19 -29 13 -68 27 -90 32 -5 1 -11 3 -15 4 -5
1 -11 2 -15 1 -5 0 -8 3 -8 7 0 5 -6 9 -13 9 -6 0 -43 10 -82 22 -67 22 -308
86 -356 95 -13 2 -64 12 -114 21 -49 10 -103 19 -120 20 -16 2 -50 6 -75 10
-106 17 -168 22 -375 30 -82 3 -155 8 -162 10 -6 2 -13 2 -15 0z"/>
<path d="M16340 14125 c0 -5 53 -29 132 -61 27 -10 48 -22 48 -26 0 -5 9 -8
19 -8 11 0 23 -4 26 -10 3 -5 15 -10 25 -10 10 0 20 -4 22 -9 2 -5 30 -23 63
-40 96 -50 172 -95 257 -153 15 -10 31 -18 37 -18 5 0 11 -4 13 -8 2 -5 31
-27 64 -50 34 -23 68 -47 75 -54 8 -8 30 -25 49 -38 45 -32 66 -49 102 -82 16
-16 31 -28 34 -28 23 0 343 -329 448 -460 49 -62 46 -58 96 -125 25 -33 48
-62 51 -65 3 -3 8 -9 10 -15 2 -5 34 -56 72 -112 37 -56 67 -105 67 -108 0 -3
12 -24 27 -48 60 -94 226 -450 235 -503 2 -11 6 -21 9 -24 8 -7 95 -281 104
-330 2 -12 7 -30 10 -40 7 -21 11 -40 36 -160 7 -30 13 -69 14 -87 2 -17 5
-35 8 -40 3 -5 9 -38 12 -73 4 -36 9 -78 12 -95 3 -16 6 -56 6 -87 1 -32 5
-58 8 -58 6 0 3 -517 -4 -565 -3 -16 -8 -59 -12 -95 -4 -36 -9 -74 -11 -85 -2
-10 -6 -37 -9 -60 -5 -35 -50 -255 -60 -295 -9 -34 -66 -236 -71 -250 -3 -8
-5 -16 -5 -17 0 -2 -8 -23 -19 -48 -11 -25 -20 -49 -21 -53 -9 -38 -84 -212
-149 -342 -80 -161 -203 -370 -242 -414 -10 -11 -18 -23 -18 -26 0 -4 -11 -20
-25 -36 -14 -16 -25 -34 -25 -41 0 -6 -4 -13 -8 -15 -4 -1 -35 -37 -67 -78
-62 -78 -80 -99 -155 -183 -52 -58 -250 -257 -256 -257 -2 0 -12 -8 -22 -17
-40 -38 -89 -81 -142 -121 -30 -23 -62 -48 -70 -56 -25 -24 -90 -66 -101 -66
-6 0 -7 -4 -4 -10 3 -5 1 -10 -6 -10 -7 0 -26 -10 -43 -23 -71 -53 -348 -215
-375 -219 -9 -2 -18 -6 -21 -10 -13 -17 -415 -189 -415 -178 0 1 -17 -6 -38
-15 -21 -9 -42 -13 -47 -10 -6 4 -10 2 -10 -3 0 -5 -15 -13 -32 -17 -18 -4
-39 -9 -45 -11 -7 -2 -19 -5 -25 -7 -7 -2 -33 -10 -58 -17 -54 -16 -56 -16
-100 -25 -19 -3 -60 -12 -90 -20 -30 -7 -71 -16 -90 -19 -53 -9 -93 -16 -115
-21 -11 -2 -47 -7 -80 -10 -33 -4 -76 -8 -95 -11 -80 -10 -244 -18 -380 -17
-232 0 -411 16 -620 54 -30 6 -66 12 -80 15 -14 2 -46 9 -71 15 -26 6 -55 12
-65 14 -11 2 -19 4 -19 5 0 2 -13 5 -75 20 -25 6 -52 13 -60 17 -8 3 -19 7
-25 8 -5 0 -17 4 -25 7 -16 7 -122 42 -130 43 -12 2 -86 28 -95 34 -5 3 -12 6
-15 7 -10 2 -46 17 -98 40 -29 13 -55 24 -59 24 -12 0 -238 114 -251 127 -8 7
-17 11 -22 8 -5 -3 -10 -2 -12 2 -1 5 -23 19 -48 32 -53 29 -316 200 -347 227
-12 11 -34 28 -49 39 -15 11 -68 53 -118 94 -50 40 -118 94 -150 120 -32 25
-71 57 -86 71 -15 14 -39 34 -55 45 -15 11 -35 27 -44 36 -9 8 -88 74 -176
145 -172 139 -177 143 -246 200 -25 22 -63 53 -84 69 -21 17 -50 40 -64 52
-14 12 -66 54 -116 95 -135 110 -137 111 -162 136 -13 12 -26 22 -29 22 -2 0
-33 24 -67 53 -34 28 -77 63 -95 77 -18 14 -45 36 -61 50 -15 14 -44 39 -65
55 -21 17 -53 42 -70 56 -17 14 -42 34 -55 45 -13 10 -28 24 -35 29 -6 6 -36
30 -66 54 -30 25 -59 49 -65 55 -5 6 -28 24 -50 41 -21 16 -46 36 -55 45 -9 8
-31 27 -50 41 -19 15 -45 35 -56 45 -12 11 -61 51 -109 89 -47 39 -101 82
-118 98 l-32 27 -30 -37 c-16 -20 -44 -51 -61 -69 -17 -18 -29 -35 -27 -38 3
-2 -4 -11 -16 -18 -12 -7 -21 -18 -21 -25 0 -6 -3 -13 -8 -15 -4 -1 -36 -39
-72 -83 -35 -44 -98 -121 -140 -172 -41 -50 -82 -100 -90 -111 -8 -11 -29 -37
-47 -58 -40 -48 -134 -164 -148 -182 -5 -7 -17 -21 -25 -30 -9 -9 -33 -39 -55
-67 -22 -27 -46 -56 -53 -64 -8 -8 -32 -38 -54 -68 -22 -29 -44 -53 -49 -53
-5 0 -9 -6 -9 -12 0 -7 -21 -35 -45 -62 -25 -27 -45 -52 -45 -56 0 -3 -13 -19
-28 -36 -15 -16 -48 -54 -72 -84 -25 -30 -47 -57 -50 -60 -3 -3 -17 -21 -32
-40 -14 -19 -34 -44 -44 -55 -16 -17 -61 -72 -114 -139 -8 -10 -23 -27 -32
-38 -10 -10 -18 -22 -18 -27 0 -5 -4 -11 -9 -13 -5 -1 -33 -32 -61 -68 -28
-36 -67 -83 -85 -105 -19 -22 -100 -121 -181 -220 -211 -259 -242 -295 -374
-430 -90 -93 -227 -220 -237 -220 -3 0 -18 -11 -33 -25 -34 -33 -67 -60 -110
-90 -19 -13 -37 -27 -40 -31 -3 -4 -57 -42 -120 -83 -63 -42 -120 -79 -126
-83 -29 -22 -127 -76 -264 -145 -95 -48 -111 -65 -28 -29 131 56 332 154 356
173 6 6 12 7 12 2 0 -5 4 -4 8 1 4 6 45 32 92 59 47 27 117 70 156 96 40 26
76 49 82 51 5 2 22 14 38 27 16 12 58 44 94 70 36 26 74 55 85 64 11 9 49 40
85 69 100 82 205 179 415 384 62 61 224 218 360 350 135 132 302 294 370 360
165 161 603 587 739 719 60 58 113 106 117 106 3 0 38 -33 77 -72 87 -89 246
-253 542 -558 124 -128 266 -274 315 -325 50 -51 196 -202 325 -335 352 -364
627 -638 705 -704 39 -33 75 -64 80 -70 6 -6 66 -53 135 -104 69 -52 133 -100
143 -108 10 -9 29 -20 43 -26 13 -6 24 -15 24 -20 0 -4 5 -8 11 -8 5 0 36 -17
67 -39 31 -21 80 -50 107 -65 28 -15 64 -35 80 -45 39 -23 233 -120 310 -156
126 -57 410 -163 515 -191 8 -2 85 -21 170 -43 143 -36 182 -44 265 -56 17 -3
41 -7 55 -11 14 -3 39 -8 55 -10 17 -2 46 -6 65 -9 86 -13 213 -24 350 -29 58
-3 107 -5 110 -6 7 -2 259 2 306 4 22 2 46 6 52 10 7 4 12 2 12 -4 0 -6 3 -9
8 -7 7 5 54 11 177 22 33 4 71 8 85 11 14 2 45 7 70 9 25 3 52 7 60 10 8 2 33
7 55 10 22 4 47 8 55 10 8 3 31 7 51 10 21 3 95 22 165 41 71 19 138 37 149
39 11 3 51 15 90 27 38 12 73 21 78 20 4 -1 7 2 7 7 0 5 17 12 38 16 20 4 43
12 51 18 8 7 17 11 20 11 29 -6 533 227 569 263 7 7 18 13 23 13 6 0 30 14 54
30 24 16 46 30 50 30 8 0 270 177 288 194 6 6 28 23 47 36 19 14 44 32 55 42
11 9 40 33 65 53 130 107 410 376 410 395 0 6 3 10 8 10 24 0 392 475 392 507
0 3 13 22 28 42 32 41 192 325 192 341 0 5 5 10 11 10 5 0 8 4 5 8 -3 5 4 23
15 40 10 18 19 39 19 47 0 8 4 15 9 15 5 0 12 11 15 25 3 13 19 52 35 87 16
34 27 66 25 70 -3 5 0 8 5 8 6 0 11 6 11 14 0 7 9 35 19 62 31 79 34 89 33 97
-1 4 3 7 10 7 6 0 9 3 6 6 -5 5 9 60 29 114 3 8 7 20 8 25 2 6 15 54 29 108
15 53 29 106 32 117 10 46 12 57 22 95 10 36 16 71 27 155 2 14 4 25 5 25 5 0
22 124 24 178 0 15 3 27 6 27 3 0 5 17 6 38 0 20 4 69 8 107 16 158 5 770 -14
770 -2 0 -4 20 -5 45 -2 25 -4 45 -5 45 -1 0 -3 14 -5 30 -1 17 -3 30 -5 30
-1 0 -3 11 -5 25 -11 83 -24 162 -31 182 -3 10 -7 30 -10 45 -2 16 -16 73 -31
128 -14 55 -27 107 -28 115 -1 8 -5 22 -8 30 -6 15 -105 305 -111 325 -2 6
-13 32 -24 58 -12 27 -22 51 -22 53 0 3 -14 35 -31 72 -77 165 -113 238 -123
244 -7 5 -7 8 -1 8 7 0 7 3 0 8 -5 4 -19 25 -30 47 -11 22 -22 42 -25 45 -3 3
-11 16 -18 30 -6 14 -18 34 -24 45 -33 51 -192 290 -199 299 -5 6 -37 47 -71
91 -34 44 -66 83 -72 87 -6 4 -8 8 -5 8 6 0 -40 53 -107 126 -17 18 -29 36
-26 39 3 3 -2 5 -11 5 -9 0 -17 4 -17 9 0 20 -281 286 -402 381 -11 8 -33 27
-50 43 -16 15 -33 27 -37 27 -5 0 -27 17 -78 60 -7 5 -16 10 -22 10 -5 0 -11
3 -13 8 -5 11 -82 67 -89 65 -4 -1 -15 7 -24 17 -10 11 -24 20 -32 20 -7 0
-13 5 -13 10 0 6 -7 10 -15 10 -8 0 -15 5 -15 10 0 6 -5 10 -11 10 -6 0 -24 9
-39 20 -93 66 -517 280 -555 280 -8 0 -15 5 -15 10 0 6 -9 10 -19 10 -11 0
-23 5 -26 10 -3 6 -12 10 -20 10 -8 0 -26 5 -42 12 -15 6 -30 12 -33 13 -11 4
-46 17 -68 26 -26 10 -32 11 -32 4z"/>
<path d="M14827 13864 c-1 -1 -40 -5 -87 -9 -104 -8 -155 -13 -155 -15 0 -1
-13 -3 -30 -5 -25 -3 -81 -12 -230 -39 -5 -1 -16 -5 -22 -9 -7 -5 -13 -6 -13
-3 0 3 -23 -2 -52 -10 -28 -9 -60 -17 -70 -19 -31 -6 -210 -65 -278 -91 -75
-29 -73 -28 -205 -90 -55 -26 -106 -48 -112 -50 -7 -1 -19 -9 -28 -17 -8 -9
-25 -19 -38 -23 -12 -4 -24 -9 -27 -13 -3 -3 -21 -15 -40 -25 -53 -29 -204
-129 -212 -141 -5 -6 -8 -6 -8 0 0 7 -3 7 -8 0 -4 -5 -36 -32 -72 -60 -36 -27
-67 -52 -70 -55 -3 -3 -32 -27 -65 -54 -65 -54 -270 -258 -323 -322 -17 -21
-42 -50 -53 -64 -12 -14 -35 -42 -52 -63 -18 -22 -40 -49 -50 -60 -10 -12 -31
-37 -45 -56 -15 -18 -35 -43 -44 -55 -10 -11 -29 -34 -42 -51 -14 -16 -42 -51
-63 -76 -21 -25 -51 -63 -68 -84 -40 -52 -92 -116 -113 -140 -10 -11 -45 -54
-77 -95 -32 -41 -61 -77 -65 -80 -4 -4 -121 -149 -220 -274 -8 -10 -23 -27
-32 -38 -10 -10 -18 -20 -18 -23 0 -3 -10 -16 -22 -29 -37 -37 -58 -66 -58
-75 0 -5 -4 -11 -8 -13 -5 -1 -30 -30 -57 -63 -26 -33 -51 -62 -54 -65 -3 -3
-19 -23 -36 -45 -16 -22 -32 -42 -35 -45 -3 -3 -39 -48 -80 -100 -41 -52 -81
-103 -89 -112 -9 -9 -21 -23 -26 -30 -6 -7 -21 -27 -35 -44 -14 -17 -36 -45
-50 -64 -14 -18 -29 -38 -35 -44 -5 -6 -55 -67 -110 -136 -55 -69 -104 -130
-110 -136 -5 -7 -35 -44 -65 -83 -30 -39 -58 -71 -62 -71 -5 0 -8 -5 -8 -10 0
-6 -11 -23 -25 -38 l-26 -27 29 -25 c15 -14 47 -41 71 -60 23 -19 48 -39 54
-45 7 -5 33 -27 59 -48 26 -21 53 -43 60 -50 7 -7 36 -30 63 -51 28 -22 55
-44 60 -50 6 -6 30 -27 55 -46 25 -19 47 -37 50 -40 3 -3 25 -21 50 -40 25
-19 50 -39 56 -45 6 -6 41 -35 78 -65 36 -29 66 -57 66 -62 0 -5 4 -7 9 -3 6
3 13 -1 18 -8 4 -7 28 -29 53 -48 25 -18 47 -36 50 -39 3 -3 43 -37 90 -75 47
-38 87 -71 90 -75 3 -3 25 -21 50 -40 25 -19 50 -39 56 -45 6 -5 30 -26 54
-45 44 -35 193 -157 239 -195 14 -11 33 -28 43 -37 10 -10 21 -18 24 -18 3 0
22 -16 42 -35 20 -19 40 -35 43 -35 3 0 17 -10 31 -22 38 -35 79 -69 133 -113
28 -22 55 -44 62 -50 6 -5 26 -21 44 -35 18 -14 37 -30 43 -35 6 -6 47 -39 91
-75 44 -35 87 -71 95 -80 8 -8 23 -19 31 -25 9 -5 64 -48 121 -95 58 -47 120
-96 138 -110 18 -14 39 -31 46 -38 7 -6 17 -12 22 -12 6 0 12 -3 14 -8 9 -21
298 -193 432 -256 134 -64 151 -71 271 -115 117 -44 130 -47 120 -31 -4 6 -11
8 -16 5 -5 -4 -9 -1 -9 6 0 7 -3 10 -6 7 -5 -6 -275 124 -298 143 -28 23 -86
58 -86 51 0 -4 -4 -2 -8 4 -4 6 -29 26 -57 44 -53 36 -157 116 -215 165 -46
39 -361 355 -635 639 -121 126 -267 276 -325 336 -58 59 -204 210 -325 335
-324 335 -416 429 -521 537 l-96 97 392 388 c386 383 484 479 1087 1069 405
397 415 406 538 498 33 25 68 52 78 60 9 9 19 16 21 16 2 0 36 22 77 49 41 26
103 63 139 82 36 19 67 37 68 42 2 4 8 5 13 1 5 -3 9 0 9 6 0 6 5 8 10 5 6 -3
10 -1 10 5 0 6 5 8 10 5 6 -3 10 -1 10 6 0 7 3 9 7 6 3 -4 11 -3 17 2 58 47
556 205 586 186 6 -3 10 -2 10 3 0 5 6 9 13 9 6 1 30 4 52 7 42 7 85 12 170
22 72 9 397 9 485 0 100 -9 176 -20 235 -33 11 -2 30 -6 43 -9 51 -10 69 -14
107 -24 22 -6 50 -13 62 -15 94 -21 351 -124 493 -198 124 -65 339 -203 370
-238 3 -3 15 -12 27 -20 67 -46 288 -258 348 -334 17 -21 35 -44 42 -51 21
-20 109 -138 121 -161 7 -12 18 -28 26 -35 16 -17 142 -234 173 -298 58 -122
109 -250 105 -262 -1 -5 3 -8 8 -8 6 0 10 -8 10 -17 0 -10 7 -38 16 -62 19
-55 61 -222 68 -275 4 -21 8 -41 10 -45 2 -3 7 -31 11 -61 3 -30 8 -66 10 -80
2 -14 7 -80 10 -148 3 -68 6 -127 6 -130 1 -4 1 -9 0 -12 -1 -3 -3 -52 -5
-110 -3 -58 -7 -127 -10 -155 -12 -96 -27 -190 -33 -205 -3 -8 -7 -22 -8 -30
-9 -56 -34 -153 -54 -212 -11 -31 -17 -59 -14 -62 4 -3 1 -6 -6 -6 -7 0 -10
-3 -8 -7 3 -5 0 -19 -6 -33 -5 -14 -11 -29 -12 -35 -16 -68 -194 -424 -231
-463 -7 -6 -16 -21 -19 -32 -3 -11 -11 -20 -16 -20 -5 0 -9 -5 -9 -10 0 -10
-26 -51 -62 -94 -9 -12 -43 -55 -76 -96 -92 -116 -293 -315 -374 -372 -18 -13
-35 -26 -38 -29 -9 -11 -92 -72 -155 -114 -81 -54 -96 -63 -127 -76 -16 -6
-28 -18 -28 -27 0 -15 2 -15 10 -2 5 8 13 15 17 15 38 2 440 240 451 267 2 4
8 8 13 8 8 0 35 20 64 48 8 6 18 12 23 12 6 0 12 7 16 15 3 8 10 15 15 15 6 0
24 12 40 28 16 15 56 50 88 79 236 211 452 475 605 739 41 70 134 257 164 329
41 95 66 164 62 168 -1 2 3 11 11 20 7 10 10 17 6 17 -4 0 -2 7 5 15 7 8 9 15
5 15 -4 0 -2 7 5 15 7 8 9 15 5 15 -4 0 -2 7 5 15 6 8 9 19 5 25 -3 5 -1 10 4
10 6 0 10 3 9 8 -2 9 13 74 20 87 3 5 7 16 8 25 2 21 12 67 18 88 10 34 41
214 51 297 15 136 18 184 18 355 -1 168 -4 238 -18 340 -2 19 -7 55 -10 80 -3
25 -8 56 -10 70 -3 14 -7 36 -10 50 -3 14 -7 36 -10 50 -3 14 -7 34 -9 45 -5
25 -21 88 -36 140 -6 22 -11 48 -11 58 0 9 -4 17 -8 17 -4 0 -8 7 -8 15 0 17
-35 127 -43 135 -3 3 -6 12 -8 20 -6 32 -68 180 -119 283 -29 59 -53 112 -53
117 0 6 -4 10 -8 10 -4 0 -21 27 -37 60 -17 33 -33 60 -37 60 -5 0 -8 4 -8 9
0 5 -24 44 -52 87 -29 42 -60 87 -68 100 -21 32 -101 135 -125 160 -11 12 -34
39 -52 60 -112 138 -348 350 -538 483 -138 97 -144 101 -150 101 -3 0 -22 11
-43 23 -70 45 -87 54 -93 53 -4 -1 -15 6 -25 14 -27 22 -84 52 -84 45 0 -4
-13 3 -30 15 -16 12 -30 18 -30 13 0 -4 -4 -3 -8 3 -4 5 -34 21 -67 34 -33 13
-70 30 -82 38 -13 8 -23 12 -23 9 0 -3 -32 7 -72 24 -39 16 -82 31 -94 33 -13
3 -28 7 -33 10 -8 5 -70 23 -161 47 -46 12 -180 41 -205 44 -11 2 -33 6 -50
10 -35 7 -58 10 -145 19 -36 4 -85 10 -110 13 -41 5 -398 11 -403 7z"/>
<path d="M6805 12770 c33 -16 63 -30 67 -30 3 0 33 -15 66 -34 33 -19 63 -32
66 -28 3 3 6 0 6 -7 0 -7 5 -9 10 -6 6 3 10 1 10 -4 0 -6 7 -11 15 -11 8 0 15
-4 15 -8 0 -4 12 -13 28 -20 40 -17 97 -53 100 -63 2 -5 8 -9 12 -9 11 0 157
-108 232 -171 58 -49 272 -263 478 -478 74 -77 198 -205 275 -285 77 -79 214
-222 305 -317 91 -95 187 -195 214 -223 27 -28 103 -109 170 -179 66 -71 159
-168 206 -217 47 -48 125 -129 173 -180 l88 -92 -124 -122 c-69 -66 -243 -236
-387 -376 -144 -140 -308 -300 -365 -355 -123 -119 -569 -554 -768 -748 -124
-121 -189 -181 -280 -262 -13 -11 -38 -31 -56 -45 -19 -14 -41 -32 -50 -40
-29 -26 -169 -120 -179 -120 -6 0 -12 -4 -14 -9 -6 -17 -276 -157 -358 -186
-3 -1 -22 -9 -42 -18 -21 -10 -44 -17 -53 -17 -8 0 -15 -5 -15 -12 0 -6 -3 -9
-6 -5 -4 3 -19 0 -35 -9 -16 -8 -32 -14 -36 -14 -5 -1 -26 -6 -48 -12 -22 -6
-44 -13 -50 -14 -40 -12 -156 -42 -160 -42 -3 0 -18 -3 -33 -6 -82 -17 -155
-27 -204 -29 -21 -1 -38 -4 -38 -7 0 -19 -407 -15 -560 5 -122 16 -118 15
-192 29 -13 3 -32 7 -43 9 -11 3 -42 10 -70 16 -27 6 -61 15 -75 20 -14 5 -45
15 -70 22 -43 12 -197 69 -250 92 -14 5 -27 11 -30 12 -29 7 -275 141 -324
176 -22 16 -45 29 -52 29 -7 0 -14 3 -16 8 -1 4 -28 25 -58 47 -30 22 -77 58
-105 80 -27 22 -61 49 -74 60 -42 34 -245 239 -271 274 -14 18 -37 45 -52 61
-16 16 -28 31 -28 35 0 4 -7 13 -15 21 -25 25 -94 129 -92 137 1 5 -6 13 -15
18 -10 6 -18 17 -18 24 0 8 -4 15 -8 15 -5 0 -14 16 -22 35 -8 19 -16 35 -20
35 -6 0 -104 191 -143 280 -65 147 -138 399 -164 565 -2 17 -6 41 -8 55 -20
116 -27 467 -12 600 4 36 9 82 12 103 6 57 43 224 66 302 11 39 22 80 25 91 2
12 11 37 19 56 8 20 11 38 8 42 -4 3 -1 6 5 6 7 0 12 7 12 16 0 8 11 40 25 70
14 30 25 57 25 60 0 7 104 218 111 224 3 3 14 21 25 40 18 31 46 78 77 124 13
19 118 161 152 205 60 77 335 352 335 334 0 -2 7 3 16 11 8 9 43 37 77 63 34
26 64 51 65 55 2 4 9 8 16 8 7 0 21 9 31 20 10 11 23 20 30 20 6 0 21 9 33 20
12 12 22 17 22 13 0 -4 4 -3 8 4 10 16 251 143 272 143 5 0 12 4 15 10 20 32
-441 -179 -466 -213 -3 -5 -8 -8 -10 -6 -10 6 -287 -180 -339 -228 -14 -13
-28 -23 -31 -23 -3 0 -17 -10 -31 -22 -14 -13 -62 -57 -108 -98 -103 -92 -119
-108 -200 -200 -36 -40 -72 -80 -81 -89 -8 -9 -30 -36 -49 -61 -19 -25 -37
-47 -40 -50 -3 -3 -17 -21 -30 -40 -13 -19 -31 -40 -40 -47 -8 -7 -11 -13 -7
-13 5 0 -4 -17 -20 -37 -32 -42 -100 -149 -129 -203 -11 -19 -21 -37 -24 -40
-19 -19 -160 -327 -152 -334 3 -3 0 -6 -6 -6 -7 0 -12 -8 -12 -17 0 -10 -6
-30 -14 -44 -11 -22 -17 -39 -31 -91 -2 -5 -3 -9 -5 -10 -1 -2 -3 -10 -5 -18
-2 -8 -10 -34 -19 -58 -8 -23 -15 -44 -16 -47 0 -3 0 -6 -1 -7 0 -2 -2 -10 -4
-18 -2 -8 -6 -25 -9 -37 -26 -105 -49 -212 -61 -288 -22 -135 -36 -325 -37
-470 0 -87 11 -292 17 -325 3 -14 8 -49 11 -79 3 -30 8 -64 10 -75 3 -12 9
-46 14 -76 5 -30 23 -107 40 -170 17 -63 32 -124 35 -134 7 -30 26 -89 35
-111 4 -11 13 -36 20 -55 7 -19 19 -49 26 -67 8 -17 14 -35 14 -40 0 -5 29
-68 65 -141 36 -74 65 -137 65 -142 0 -5 3 -10 8 -12 4 -1 16 -21 27 -43 11
-22 22 -42 25 -45 10 -10 31 -45 36 -62 4 -10 10 -18 15 -18 5 0 9 -7 9 -15 0
-8 5 -15 10 -15 6 0 10 -5 10 -11 0 -15 50 -86 134 -191 25 -32 46 -60 46 -62
0 -3 10 -16 23 -29 12 -13 63 -68 112 -122 103 -113 96 -105 166 -167 30 -26
70 -61 89 -78 19 -17 60 -50 90 -73 30 -23 57 -45 60 -48 3 -3 41 -30 85 -59
44 -30 82 -57 85 -61 3 -3 15 -9 28 -13 12 -4 22 -12 22 -17 0 -5 5 -9 11 -9
6 0 23 -8 37 -19 15 -10 68 -39 117 -65 50 -25 95 -49 100 -53 6 -5 17 -9 25
-11 8 -2 18 -9 22 -15 4 -7 8 -8 8 -4 0 4 10 2 23 -5 12 -7 24 -13 27 -13 3
-1 23 -9 45 -19 22 -10 58 -24 80 -33 22 -8 49 -18 60 -23 47 -19 85 -32 92
-32 4 0 19 -5 33 -10 35 -13 120 -36 275 -74 35 -8 46 -10 105 -20 25 -4 50
-8 55 -10 22 -5 102 -16 140 -20 22 -2 69 -6 105 -9 144 -13 470 -7 595 11 17
2 50 6 75 9 25 3 52 8 60 10 8 3 33 7 55 10 22 3 51 8 65 11 14 3 34 7 45 9
11 2 21 4 23 5 3 3 61 17 102 25 13 3 127 37 140 42 20 8 20 8 55 18 17 4 35
10 40 14 6 3 17 6 25 8 8 1 23 6 35 12 11 5 45 20 75 31 100 39 374 179 458
234 45 30 82 51 82 47 0 -3 4 -1 8 4 4 6 23 22 42 35 19 14 40 28 45 33 6 4
37 28 70 53 33 25 83 64 110 87 65 54 309 299 357 357 20 25 73 90 117 145 45
55 90 109 99 120 10 11 35 43 57 70 21 28 48 60 59 72 23 24 22 24 82 98 52
67 75 94 97 117 9 10 17 21 17 24 0 3 6 11 13 18 6 7 28 32 47 56 19 24 40 48
45 54 6 6 48 58 94 116 47 58 87 107 90 110 4 3 24 28 46 55 41 51 49 62 75
92 8 9 35 42 60 73 25 31 51 62 58 70 7 8 38 47 68 85 131 164 177 221 193
236 9 9 25 29 36 44 11 16 25 33 30 39 6 6 49 58 95 116 46 58 89 110 95 117
5 7 17 20 25 30 8 10 42 51 75 93 33 41 68 84 78 95 10 11 41 49 70 85 29 36
60 74 69 84 18 20 24 46 11 46 -5 0 -24 15 -44 33 -20 17 -54 46 -75 64 -22
17 -49 39 -61 50 -12 10 -30 25 -40 33 -55 46 -200 166 -209 175 -6 6 -30 26
-54 45 -24 19 -73 60 -109 90 -36 30 -71 60 -78 65 -7 6 -19 16 -28 23 -9 8
-44 36 -78 64 -34 28 -69 59 -78 67 -8 9 -28 25 -43 36 -15 11 -38 29 -50 40
-12 12 -45 39 -72 60 -27 22 -51 42 -54 45 -3 3 -27 24 -55 45 -27 22 -56 47
-65 55 -42 39 -80 70 -86 70 -4 0 -20 14 -36 30 -15 17 -32 30 -37 30 -5 0
-11 3 -13 8 -1 4 -46 42 -98 86 -52 43 -106 88 -120 100 -14 11 -50 41 -80 66
-30 25 -56 48 -58 53 -2 4 -10 7 -18 7 -8 0 -14 4 -14 9 0 5 -26 28 -57 52
-32 24 -65 50 -74 59 -8 8 -35 31 -59 50 -24 19 -60 49 -79 65 -20 17 -42 35
-49 40 -7 6 -18 15 -25 21 -7 5 -37 30 -67 55 -30 24 -64 52 -75 61 -11 10
-49 40 -85 68 -36 28 -73 57 -83 65 -9 8 -21 15 -26 15 -5 0 -11 4 -13 9 -3
10 -229 158 -256 168 -9 4 -19 9 -22 13 -9 12 -123 70 -137 70 -7 0 -13 5 -13
10 0 6 -3 9 -7 8 -7 -1 -83 32 -168 72 -40 19 -200 80 -210 80 -5 0 17 -14 50
-30z"/>
<path d="M16235 8120 c-3 -6 1 -7 9 -4 18 7 21 14 7 14 -6 0 -13 -4 -16 -10z"/>
<path d="M14070 7986 c0 -2 7 -7 16 -10 8 -3 12 -2 9 4 -6 10 -25 14 -25 6z"/>
</g>
</svg>
